<?xml version="1.0" encoding="UTF-8"?>
<svg id="Camada_1" data-name="Camada 1" xmlns="http://www.w3.org/2000/svg" viewBox="0 0 1064.89 1064.89">
  <defs>
    <style>
      .cls-1 {
        fill: #ec666b;
      }

      .cls-1, .cls-2, .cls-3, .cls-4 {
        stroke-width: 0px;
      }

      .cls-2 {
        fill: #fff;
      }

      .cls-3 {
        fill: #fdc733;
      }

      .cls-4 {
        fill: #8ebf32;
      }
    </style>
  </defs>
  <circle class="cls-1" cx="532.45" cy="532.45" r="532.45"/>
  <circle class="cls-3" cx="532.45" cy="532.45" r="532.45"/>
  <circle class="cls-4" cx="532.45" cy="532.45" r="532.45"/>
  <path class="cls-2" d="M804.47,226.06c-7.28-7.28-19.86-6.62-25.81,1.99l-158.84,217.75h0l-71.48,95.31-52.95-70.82c23.16-21.84,27.14-58.24,7.94-84.72l-115.82-159.5c-5.96-8.6-18.53-10.59-27.14-3.97-8.6,5.96-10.59,18.53-3.97,27.14l95.31,131.05c2.65,3.97,1.99,9.27-1.99,12.58l-16.55,11.91c-3.97,2.65-9.27,1.99-12.58-1.99l-95.31-131.71c-5.96-8.6-18.53-10.59-27.14-3.97-8.6,5.96-10.59,18.53-3.97,27.14l95.31,131.05c2.65,3.97,1.99,9.27-1.99,12.58l-16.55,11.91c-3.97,2.65-9.27,1.99-12.58-1.99l-95.31-131.05c-5.96-8.6-18.53-10.59-27.14-3.97-8.6,5.96-10.59,18.53-3.97,27.14l115.16,158.84c19.86,27.14,56.92,34.42,85.38,17.21l64.86,92.66-125.09,166.78c-15.22,19.86-10.59,48.31,9.27,62.88h0c19.86,14.56,48.31,9.93,62.88-10.59l103.91-147.59,103.91,147.59c14.56,20.52,42.36,25.15,62.88,10.59h0c19.86-14.56,24.49-43.02,9.27-62.88l-125.75-166.78,42.36-60.23,14.56,10.59c25.15,17.87,60.23,11.25,76.77-14.56l35.08-54.93c30.44-47.65,52.29-99.28,65.52-153.55,10.59-39.71-.66-81.41-28.46-109.87Z"/>
</svg>