<?xml version="1.0" encoding="UTF-8"?>
<svg id="Camada_1" data-name="Camada 1" xmlns="http://www.w3.org/2000/svg" viewBox="0 0 337.99 338.43">
  <defs>
    <style>
      .cls-1 {
        fill: #fff;
        stroke-width: 0px;
      }
    </style>
  </defs>
  <g>
    <g>
      <path class="cls-1" d="M152.36,195.42c-.06,0-.13-.02-.19-.02.06.02.15.02.21.04l-.02-.02h0Z"/>
      <path class="cls-1" d="M186.67,189.7l-.18,1.34s8.35-2.45,17.81-7.3c14.2.1,7.32,36.05-9.52,44.25-17.53,8.54-21.87-.36-15.98-10.68,2.41-4.24,16.99-14.53,22.44,1.3,0,0,11.2-22.55-2.33-25.82-6.67-1.64-18.85,11.54-24.56,24.98-5.01,11.83,5.03,22.9,20.62,22.9,34.27,0,48.66-44.04,32.28-58.66-3.52-3.15-6.94-5.14-10.21-6.27,5.01-3.92,9.33-8.56,11.72-13.95,7.86-17.83-8.33-38.25-28.46-27.12-4.82,2.68-8.66,5.54-17.01,15-.17-4.53-.44-9.29-.86-14.28l-4.4-1.3s2.18,7.74,2.83,18.39c-3.02,3.52-21.64,24.66-28.52,17.34,3.33-9.12,8.91-11.37,11.93-11.89l1.36-2.81-30.26,2.01c13.32-4.51,41.71-16.69,46.77-39.95,4.24-19.46-8.33-38.23-28.46-27.1-4.82,2.66-8.64,5.52-17.01,15-.15-4.53-.44-9.29-.86-14.28l-4.4-1.32s2.18,7.76,2.85,18.39c-3.65,4.28-30.03,34.21-31.08,8.77,0,0-7.82,31.79,1.66,34.02,9.42,2.22,22.04-17.85,29.42-31.5-1.15,18.5-8.87,40.06-36.7,46.85l-1.53,30.07s22.9-1.45,34.4-35.67l6.77-.42c-3.9,7.64-12.1,30.66,14.2,35.26.02,0,.04.02.06.02.25.06.48.1.73.13.06,0,.13.02.19.02,9.31.8,21.35-18.46,28.5-31.65-1.17,18.5-8.87,40.04-36.7,46.83l-1.53,30.07s40.56-2.56,40.79-81.52c21.56-37.52,26.13-17.62,26.66-14.53,1.47,9.03-4.62,23.01-11.93,32.88M198.15,177.5c-.2.26-.39.53-.59.78-6.65,4.07-10.7,9.94-10.7,9.94l-.2,1.47M136.82,114.57c21.54-37.54,26.11-17.62,26.64-14.53,5.56,33.79-19.06,48.59-31.38,54.78,2.85-10.51,4.68-23.7,4.74-40.25Z"/>
    </g>
    <path class="cls-1" d="M317.09,203.51c-.45.45-.91.45-1.36.91l-2.27,2.27c-.45,0-.91.45-1.36.91.91,2.27,1.82,4.54,2.27,6.81,4.09,10.45,9.09,25.44,1.36,39.52-8.18,14.08-24.08,16.81-35.44,18.63l-6.36,1.36c-.45,1.82-.91,4.54-1.36,6.81-3.18,20.44-11.81,39.07-34.98,39.07-8.63,0-16.81-2.73-23.62-5.45-1.82-.45-4.54-1.36-6.36-2.27-1.36,1.82-3.18,3.64-4.09,5-7.72,9.09-17.72,21.35-34.53,21.35s-26.8-12.26-34.07-21.35c-1.36-1.36-3.18-3.18-4.54-5-1.82.91-4.54,1.82-6.36,2.27-6.81,2.73-14.99,5.45-23.62,5.45-23.17,0-30.89-19.08-34.98-39.07,0-2.27-.45-5-.91-6.81-2.27-.45-5-.91-6.81-1.36-11.36-1.82-26.8-4.54-34.98-18.63s-2.73-29.08.91-39.52c.91-2.27,1.82-4.54,2.27-6.81-1.36-1.36-3.18-2.72-5-4.09-8.63-7.72-20.9-17.72-20.9-34.53s12.27-26.8,20.9-34.07c1.82-1.36,3.63-2.73,5-4.09-.45-2.27-1.36-4.54-2.27-6.81-3.63-10.45-9.09-25.44-.91-39.52s23.62-16.81,34.98-18.63c1.82-.45,4.54-.91,6.81-1.36.45-2.27.91-4.54.91-6.81,4.09-19.99,11.81-39.07,35.43-39.07,8.18,0,16.36,2.73,23.17,5,1.82.91,4.54,1.82,6.36,2.27l4.54-4.54c7.27-9.09,17.72-21.35,34.07-21.35s26.8,12.27,34.53,21.35c.91,1.36,2.73,3.18,4.09,4.54,1.82-.45,4.54-1.36,6.36-2.27,6.81-2.27,14.99-5,23.17-5,23.62,0,32.25,18.63,35.43,39.07.45,2.27.91,4.54,1.36,6.81l6.36,1.36c11.36,1.82,27.26,4.54,35.44,18.63,7.72,14.08,2.73,29.07-1.36,39.52-.45,2.27-1.36,4.54-2.27,6.81.45.45.91.45,1.36.91l2.27,2.27c.45,0,.91.45,1.36.91,9.09,7.27,20.9,17.72,20.9,34.07s-11.81,26.8-20.9,34.53h0ZM289.83,167.62c-7.27-6.36-16.35-14.08-19.53-25.44-3.18-11.81.91-23.17,4.09-32.71v-.45l.45-.45c-.45-.91-1.36-.91-1.82-.91-27.71-5.45-38.16-13.17-42.25-42.25-.45-.91-.45-1.36-.91-1.82h-.91c0,.45-.45.45-.45.45-9.09,3.18-20.44,7.27-32.25,4.09s-19.53-12.27-25.44-19.53c-.45-.45-1.36-1.36-2.27-1.36l-.45.91c-6.81,7.72-14.54,16.81-25.9,19.99-12.27,3.18-23.62-.91-32.71-4.09l-.45-.45h-.45c-.91.45-.91.91-.91,1.82-5.45,29.08-14.08,36.8-42.7,42.25-.45,0-.91,0-1.82.45.45.45.45.91.45,1.36,3.63,9.54,7.72,20.9,4.54,32.71-3.18,11.36-12.27,19.08-19.53,25.44l-2.27,1.36c.91.91,1.36,1.36,2.27,1.82,7.27,6.36,16.35,13.63,19.53,25.44s-.91,23.17-4.54,32.25c0,.91,0,1.36-.45,1.82.91,0,1.36.45,1.82.45,28.62,5.45,37.25,13.18,42.7,42.25,0,.91,0,1.36.45,1.82.45,0,.91,0,1.36-.45,6.81-2.27,14.99-5.45,23.62-5.45,15.45,0,25.44,10.45,34.98,21.35l.45.91c1.36,0,1.82-.91,2.27-1.36,5.91-7.27,13.63-16.35,25.44-19.53,11.81-3.18,23.17.91,32.25,4.09.45.45,1.36.45,1.82.45,0-.45,0-.91.45-1.82,4.09-29.07,14.54-37.25,42.7-42.25l.91-.45h.45c0-.45-.45-.91-.45-1.82-3.18-9.09-7.27-20.44-4.09-32.26,3.18-11.81,12.27-19.08,19.53-25.44.45-.45.91-.91,1.82-1.82-.91-.45-1.36-.91-1.82-1.36h.02Z"/>
  </g>
  <g>
    <g>
      <path class="cls-1" d="M152.36,195.42c-.06,0-.13-.02-.19-.02.06.02.15.02.21.04l-.02-.02h0Z"/>
      <path class="cls-1" d="M186.67,189.7l-.18,1.34s8.35-2.45,17.81-7.3c14.2.1,7.32,36.05-9.52,44.25-17.53,8.54-21.87-.36-15.98-10.68,2.41-4.24,16.99-14.53,22.44,1.3,0,0,11.2-22.55-2.33-25.82-6.67-1.64-18.85,11.54-24.56,24.98-5.01,11.83,5.03,22.9,20.62,22.9,34.27,0,48.66-44.04,32.28-58.66-3.52-3.15-6.94-5.14-10.21-6.27,5.01-3.92,9.33-8.56,11.72-13.95,7.86-17.83-8.33-38.25-28.46-27.12-4.82,2.68-8.66,5.54-17.01,15-.17-4.53-.44-9.29-.86-14.28l-4.4-1.3s2.18,7.74,2.83,18.39c-3.02,3.52-21.64,24.66-28.52,17.34,3.33-9.12,8.91-11.37,11.93-11.89l1.36-2.81-30.26,2.01c13.32-4.51,41.71-16.69,46.77-39.95,4.24-19.46-8.33-38.23-28.46-27.1-4.82,2.66-8.64,5.52-17.01,15-.15-4.53-.44-9.29-.86-14.28l-4.4-1.32s2.18,7.76,2.85,18.39c-3.65,4.28-30.03,34.21-31.08,8.77,0,0-7.82,31.79,1.66,34.02,9.42,2.22,22.04-17.85,29.42-31.5-1.15,18.5-8.87,40.06-36.7,46.85l-1.53,30.07s22.9-1.45,34.4-35.67l6.77-.42c-3.9,7.64-12.1,30.66,14.2,35.26.02,0,.04.02.06.02.25.06.48.1.73.13.06,0,.13.02.19.02,9.31.8,21.35-18.46,28.5-31.65-1.17,18.5-8.87,40.04-36.7,46.83l-1.53,30.07s40.56-2.56,40.79-81.52c21.56-37.52,26.13-17.62,26.66-14.53,1.47,9.03-4.62,23.01-11.93,32.88M198.15,177.5c-.2.26-.39.53-.59.78-6.65,4.07-10.7,9.94-10.7,9.94l-.2,1.47M136.82,114.57c21.54-37.54,26.11-17.62,26.64-14.53,5.56,33.79-19.06,48.59-31.38,54.78,2.85-10.51,4.68-23.7,4.74-40.25Z"/>
    </g>
    <path class="cls-1" d="M317.09,203.51c-.45.45-.91.45-1.36.91l-2.27,2.27c-.45,0-.91.45-1.36.91.91,2.27,1.82,4.54,2.27,6.81,4.09,10.45,9.09,25.44,1.36,39.52-8.18,14.08-24.08,16.81-35.44,18.63l-6.36,1.36c-.45,1.82-.91,4.54-1.36,6.81-3.18,20.44-11.81,39.07-34.98,39.07-8.63,0-16.81-2.73-23.62-5.45-1.82-.45-4.54-1.36-6.36-2.27-1.36,1.82-3.18,3.64-4.09,5-7.72,9.09-17.72,21.35-34.53,21.35s-26.8-12.26-34.07-21.35c-1.36-1.36-3.18-3.18-4.54-5-1.82.91-4.54,1.82-6.36,2.27-6.81,2.73-14.99,5.45-23.62,5.45-23.17,0-30.89-19.08-34.98-39.07,0-2.27-.45-5-.91-6.81-2.27-.45-5-.91-6.81-1.36-11.36-1.82-26.8-4.54-34.98-18.63-8.18-14.08-2.73-29.08.91-39.52.91-2.27,1.82-4.54,2.27-6.81-1.36-1.36-3.18-2.72-5-4.09-8.63-7.72-20.9-17.72-20.9-34.53s12.27-26.8,20.9-34.07c1.82-1.36,3.63-2.73,5-4.09-.45-2.27-1.36-4.54-2.27-6.81-3.63-10.45-9.09-25.44-.91-39.52s23.62-16.81,34.98-18.63c1.82-.45,4.54-.91,6.81-1.36.45-2.27.91-4.54.91-6.81,4.09-19.99,11.81-39.07,35.43-39.07,8.18,0,16.36,2.73,23.17,5,1.82.91,4.54,1.82,6.36,2.27l4.54-4.54c7.27-9.09,17.72-21.35,34.07-21.35s26.8,12.27,34.53,21.35c.91,1.36,2.73,3.18,4.09,4.54,1.82-.45,4.54-1.36,6.36-2.27,6.81-2.27,14.99-5,23.17-5,23.62,0,32.25,18.63,35.43,39.07.45,2.27.91,4.54,1.36,6.81l6.36,1.36c11.36,1.82,27.26,4.54,35.44,18.63,7.72,14.08,2.73,29.07-1.36,39.52-.45,2.27-1.36,4.54-2.27,6.81.45.45.91.45,1.36.91l2.27,2.27c.45,0,.91.45,1.36.91,9.09,7.27,20.9,17.72,20.9,34.07s-11.81,26.8-20.9,34.53h0ZM289.83,167.62c-7.27-6.36-16.35-14.08-19.53-25.44-3.18-11.81.91-23.17,4.09-32.71v-.45l.45-.45c-.45-.91-1.36-.91-1.82-.91-27.71-5.45-38.16-13.17-42.25-42.25-.45-.91-.45-1.36-.91-1.82h-.91c0,.45-.45.45-.45.45-9.09,3.18-20.44,7.27-32.25,4.09s-19.53-12.27-25.44-19.53c-.45-.45-1.36-1.36-2.27-1.36l-.45.91c-6.81,7.72-14.54,16.81-25.9,19.99-12.27,3.18-23.62-.91-32.71-4.09l-.45-.45h-.45c-.91.45-.91.91-.91,1.82-5.45,29.08-14.08,36.8-42.7,42.25-.45,0-.91,0-1.82.45.45.45.45.91.45,1.36,3.63,9.54,7.72,20.9,4.54,32.71-3.18,11.36-12.27,19.08-19.53,25.44l-2.27,1.36c.91.91,1.36,1.36,2.27,1.82,7.27,6.36,16.35,13.63,19.53,25.44s-.91,23.17-4.54,32.25c0,.91,0,1.36-.45,1.82.91,0,1.36.45,1.82.45,28.62,5.45,37.25,13.18,42.7,42.25,0,.91,0,1.36.45,1.82.45,0,.91,0,1.36-.45,6.81-2.27,14.99-5.45,23.62-5.45,15.45,0,25.44,10.45,34.98,21.35l.45.91c1.36,0,1.82-.91,2.27-1.36,5.91-7.27,13.63-16.35,25.44-19.53,11.81-3.18,23.17.91,32.25,4.09.45.45,1.36.45,1.82.45,0-.45,0-.91.45-1.82,4.09-29.07,14.54-37.25,42.7-42.25l.91-.45h.45c0-.45-.45-.91-.45-1.82-3.18-9.09-7.27-20.44-4.09-32.26s12.27-19.08,19.53-25.44c.45-.45.91-.91,1.82-1.82-.91-.45-1.36-.91-1.82-1.36h.02Z"/>
  </g>
</svg>