<?xml version="1.0" encoding="UTF-8"?>
<svg id="Camada_1" data-name="Camada 1" xmlns="http://www.w3.org/2000/svg" viewBox="0 0 1064.89 1064.89">
  <defs>
    <style>
      .cls-1 {
        fill: #6c4f9c;
      }

      .cls-1, .cls-2 {
        stroke-width: 0px;
      }

      .cls-2 {
        fill: #fff;
      }
    </style>
  </defs>
  <circle class="cls-1" cx="532.45" cy="532.45" r="532.45"/>
  <g>
    <path class="cls-2" d="M282.15,793.67c0,27.82-41.72,27.82-41.72,0s41.72-27.79,41.72,0"/>
    <path class="cls-2" d="M617.75,250.33c0,27.82-41.72,27.82-41.72,0s41.72-27.79,41.72,0"/>
    <path class="cls-2" d="M293.57,287.5c11.52,0,20.86,11.52,20.86,20.86v64.58c0,11.52-9.33,20.86-20.86,20.86s-20.86-11.52-20.86-20.86v-64.58c0-11.52,9.33-20.86,20.86-20.86Z"/>
    <path class="cls-2" d="M476.6,835.41c-57.51,0-104.29-46.77-104.29-104.29s46.77-104.29,104.29-104.29,104.29,46.77,104.29,104.29-46.77,104.29-104.29,104.29ZM476.6,668.55c-34.49,0-62.57,28.08-62.57,62.57s28.08,62.57,62.57,62.57,62.57-28.08,62.57-62.57-28.08-62.57-62.57-62.57Z"/>
    <path class="cls-2" d="M741.02,785.32c-57.51,0-104.29-46.77-104.29-104.29s46.77-104.29,104.29-104.29,104.29,46.77,104.29,104.29-46.77,104.29-104.29,104.29ZM741.02,618.46c-34.49,0-62.57,28.08-62.57,62.57s28.08,62.57,62.57,62.57,62.57-28.08,62.57-62.57-28.08-62.57-62.57-62.57Z"/>
    <path class="cls-2" d="M323.87,639.29c-57.51,0-104.29-46.77-104.29-104.29s46.77-104.29,104.29-104.29,104.29,46.77,104.29,104.29-46.77,104.29-104.29,104.29ZM323.87,472.43c-34.49,0-62.57,28.08-62.57,62.57s28.08,62.57,62.57,62.57,62.57-28.08,62.57-62.57-28.08-62.57-62.57-62.57Z"/>
    <path class="cls-2" d="M580.89,731.12h-41.72v-265.2c0-35.46,21.09-67.37,53.71-81.29l136.25-58.09c25.86-11.05,55.27-8.37,78.71,7.14,23.44,15.49,37.44,41.51,37.44,69.61v277.72h-41.72v-277.72c0-14.26-6.83-26.96-18.72-34.81-11.89-7.87-26.25-9.18-39.37-3.57l-136.25,58.09c-17.23,7.35-28.37,24.19-28.37,42.91v265.2h.03Z"/>
    <path class="cls-2" d="M551.89,545.12l264.37-112.76,16.37,38.38-264.37,112.76-16.37-38.38Z"/>
    <path class="cls-2" d="M514.56,345.62c-59.39-9.65-78.16-66.92-83.92-96.89-2.03-10.51-11.03-18.2-21.74-18.2h-.39c-12.2,0-22.08,9.88-22.08,22.08v287.73h41.72l-.03-192.93c18.72,19.76,44.9,35.14,80.85,39.84,12.46,1.62,23.49-8.45,23.49-20.99,0-10.38-7.66-18.98-17.89-20.65h0Z"/>
    <path class="cls-2" d="M560.03,731.12c0,46.07-37.34,83.43-83.43,83.43s-83.43-37.36-83.43-83.43,37.36-83.43,83.43-83.43,83.43,37.36,83.43,83.43"/>
    <path class="cls-2" d="M824.45,681.04c0,46.09-37.36,83.43-83.43,83.43s-83.43-37.34-83.43-83.43,37.36-83.43,83.43-83.43,83.43,37.36,83.43,83.43"/>
    <path class="cls-2" d="M407.3,535.01c0,46.07-37.36,83.43-83.43,83.43s-83.43-37.36-83.43-83.43,37.36-83.43,83.43-83.43,83.43,37.34,83.43,83.43"/>
    <path class="cls-2" d="M560.03,564.29l264.42-112.71v-45.73c0-46.49-47.45-77.88-90.24-59.7l-134.69,57.23c-23.93,10.17-39.47,33.69-39.47,59.7v101.21h-.02Z"/>
  </g>
</svg>