<?xml version="1.0" encoding="UTF-8"?>
<svg id="Camada_1" data-name="Camada 1" xmlns="http://www.w3.org/2000/svg" viewBox="0 0 1064.89 1064.89">
  <defs>
    <style>
      .cls-1 {
        fill: #6c4f9c;
      }

      .cls-1, .cls-2, .cls-3, .cls-4, .cls-5 {
        stroke-width: 0px;
      }

      .cls-2 {
        fill: #ec666b;
      }

      .cls-3 {
        fill: #fff;
      }

      .cls-4 {
        fill: #fdc733;
      }

      .cls-5 {
        fill: #8ebf32;
      }
    </style>
  </defs>
  <circle class="cls-2" cx="532.45" cy="532.45" r="532.45"/>
  <circle class="cls-4" cx="532.45" cy="532.45" r="532.45"/>
  <circle class="cls-5" cx="532.45" cy="532.45" r="532.45"/>
  <circle class="cls-1" cx="532.45" cy="532.45" r="532.45"/>
  <g>
    <path class="cls-3" d="M753.37,536.54l-11.02-29.53c-2.75-7.43-8.42-13.45-15.69-16.68-7.27-3.23-15.53-3.39-22.93-.45l-37.08,14.8-20.08-47.78h.03c-7.4-17.64-20.94-31.99-38.14-40.38l-9.38-4.61c48.55-9.67,81.82-54.54,77.02-103.79-4.8-49.25-46.15-86.85-95.62-86.94h-.22c-33.53-.03-64.66,17.39-82.17,46.02-17.48,28.6-18.8,64.27-3.49,94.09-16.62-7.05-33.95-12.33-51.65-15.76l-49.73-9.54h-.03c-20.85-4-42.43.51-59.92,12.55-17.45,12.04-29.37,30.62-33.05,51.53l-8.97,50.98c-2.85,16.08,7.91,31.42,24.02,34.27l31.58,5.54h-.03c15.76,2.82,30.87-7.46,34.07-23.15l8.65-41.82,28.24,4.96v-.03.03c2.15.38,3.97,1.76,4.96,3.71.99,1.92.99,4.23,0,6.15l-82.97,168.19-56.65-27.73c-14.67-7.17-32.38-1.09-39.55,13.55l-21.1,43.14c-3.49,7.08-3.97,15.24-1.41,22.7,2.59,7.43,8.04,13.55,15.15,16.94l76.06,36.51h-.03c43.52,20.75,95.59,2.66,116.92-40.57l11.88-24.21h-.03c.86-1.79,2.75-2.91,4.74-2.79,2.02.1,3.78,1.38,4.48,3.27l63.25,174.53v.03c2.66,7.37,8.13,13.35,15.24,16.68,7.11,3.33,15.21,3.68,22.58,1.02l62.73-22.74.03-.03h.03c2.72-.96,4.96-3.01,6.18-5.64,1.25-2.66,1.38-5.67.38-8.39l-60.24-166.18c-5.44-15.18-4.55-31.9,2.53-46.37l24.11-49.25,3.55,9.41h-.03c6.89,18.29,20.85,33.02,38.72,40.89,17.87,7.88,38.17,8.26,56.3.99l51.05-20.37v.03c14.86-6.02,22.29-22.74,16.75-37.79h0Z"/>
    <path class="cls-3" d="M845.47,743.67c0,54.34-44.06,98.41-98.41,98.41s-98.41-44.06-98.41-98.41,44.03-98.41,98.41-98.41,98.41,44.03,98.41,98.41"/>
  </g>
</svg>