<?xml version="1.0" encoding="UTF-8"?>
<svg id="Camada_1" data-name="Camada 1" xmlns="http://www.w3.org/2000/svg" xmlns:xlink="http://www.w3.org/1999/xlink" viewBox="0 0 951.83 1080">
  <defs>
    <style>
      .cls-1 {
        fill: #fff;
      }

      .cls-1, .cls-2, .cls-3 {
        fill-rule: evenodd;
        stroke-width: 0px;
      }

      .cls-2 {
        fill: url(#RegiOnBrasil);
      }

      .cls-3 {
        fill: url(#RegiOnBrasil-2);
      }
    </style>
    <linearGradient id="RegiOnBrasil" x1="457.19" y1="0" x2="457.19" y2="1035.67" gradientUnits="userSpaceOnUse">
      <stop offset="0" stop-color="#ec666b"/>
      <stop offset=".23" stop-color="#fdc731"/>
      <stop offset=".49" stop-color="#8cbf33"/>
      <stop offset=".76" stop-color="#4994c4"/>
      <stop offset="1" stop-color="#6d4f9c"/>
    </linearGradient>
    <linearGradient id="RegiOnBrasil-2" data-name="RegiOnBrasil" x1="204.13" y1="558.76" x2="951.83" y2="558.76" xlink:href="#RegiOnBrasil"/>
  </defs>
  <path class="cls-2" d="M664.08,0c17.4,148.5,106.37,253.28,250.31,262.52v140.85l-.93.09v-119.65c-143.94-9.23-226.69-97.8-244.08-246.29h-152.48s0,624.74,0,624.74c22,281.21-197.11,289.56-280.92,182.94,98.31,61.49,257.94,21.52,239.01-220.45V0h189.11,0ZM254.4,1035.67c-86.16-17.73-164.5-69.2-210.5-144.47-111.77-182.86-11.02-480.89,313.16-511.56v176.08l-.53.09v-132.11C55.97,471.57,25.79,794.42,109.03,928.71c32.1,51.79,84.79,88.22,145.36,106.96h0Z"/>
  <path class="cls-3" d="M707.74,37.54c11.36,96.94,50.57,179.45,116.47,227.64-89.17-34.35-141.43-113.19-154.85-227.65h38.37ZM913.45,304.73c12.27,2.61,25.06,4.37,38.38,5.22v166.96c-83.5,8.22-156.56-19.27-241.71-70.47l13.07,285.94c0,92.21.34,134.36-49.14,219.18-111,190.3-310.81,205.34-445.93,114.7,176.68,72.91,444.14-15.58,443.62-333.89v-312.08c85.15,51.2,158.21,78.69,241.71,70.47v-146.03ZM356.52,425.41c17.46-3.64,35.8-6.43,55.07-8.26v176.08c-70.2,11.56-114.79,33.12-135.64,72.99-65.67,125.57,18.88,225.16,113.46,240.13-109.94,18.27-238.86-93.15-162-240.13,20.85-39.87,58.9-61.43,129.1-72.99v-167.83ZM565.43,37.51h5.86-5.86Z"/>
  <path class="cls-1" d="M669.37,37.51c17.4,148.5,100.15,237.06,244.08,246.29v166.95c-83.5,8.23-156.56-19.26-241.71-70.47v312.08c.67,407.33-437.52,438.33-562.71,236.33-83.23-134.3-53.06-457.14,247.49-505v169.53c-70.2,11.56-108.26,33.13-129.1,72.99-128.83,246.36,320.53,392.93,289.47-3.97V37.51h152.48s0,0,0,0Z"/>
</svg>